<?xml version="1.0" encoding="UTF-8" standalone="no"?><!DOCTYPE svg PUBLIC "-//W3C//DTD SVG 1.1//EN" "http://www.w3.org/Graphics/SVG/1.1/DTD/svg11.dtd"><svg width="100%" height="100%" viewBox="0 0 1000 1000" version="1.1" xmlns="http://www.w3.org/2000/svg" xmlns:xlink="http://www.w3.org/1999/xlink" xml:space="preserve" xmlns:serif="http://www.serif.com/" style="fill-rule:evenodd;clip-rule:evenodd;stroke-linejoin:round;stroke-miterlimit:2;"><g><g><path d="M515.44,274.38c12.578,-0.004 25.156,1.15 37.558,3.463l31.932,114.564l-69.489,-18.772l-0,-99.255Z" style="fill:#efefef;"/><path d="M708.024,412.72c-9.669,-28.844 -26,-55.901 -48.913,-78.895c-27.3,-27.3 -60.451,-45.176 -95.389,-53.707l60.37,216.453l83.932,-83.851Z" style="fill:#efefef;fill-rule:nonzero;"/><path d="M552.672,581.803l113.914,31.363c47.694,-52.976 62.563,-125.045 44.607,-189.884l-158.521,158.521Z" style="fill:#efefef;fill-rule:nonzero;"/><path d="M515.44,581.687l143.509,39.523c-39.634,39.57 -91.579,59.36 -143.509,59.372l0,-98.895Z" style="fill:#efefef;"/></g><g><g transform="matrix(175,0,0,175,589.27327,563.392106)"></g><text x="454.173px" y="563.392px" style="font-family:'Poppins-Regular', 'Poppins';font-size:175px;fill:#a29f9f;">C</text><g transform="matrix(216.666667,0,0,216.666667,541.202969,523.538115)"></g><text x="414.02px" y="523.538px" style="font-family:'Poppins-Regular', 'Poppins';font-size:216.667px;fill:#efefef;">S</text><g transform="matrix(325,0,0,325,431.589747,596.677845)"></g><text x="281.44px" y="596.678px" style="font-family:'Poppins-Regular', 'Poppins';font-size:325px;fill:#efefef;">{</text></g></g></svg>